<mxfile host="app.diagrams.net" modified="2025-04-02T11:58:11.501Z" agent="Mozilla/5.0 (Windows NT 10.0; Win64; x64) AppleWebKit/537.36 (KHTML, like Gecko) Chrome/134.0.0.0 Safari/537.36 Edg/134.0.0.0" etag="394bt8k3FYh7FU_Ik3dk" version="21.5.2" type="device">
  <diagram name="Page-1" id="1EPutqzMXVUm_aG06Wfp">
    <mxGraphModel dx="1042" dy="565" grid="1" gridSize="10" guides="1" tooltips="1" connect="1" arrows="1" fold="1" page="1" pageScale="1" pageWidth="850" pageHeight="1100" math="0" shadow="0">
      <root>
        <mxCell id="0" />
        <mxCell id="1" parent="0" />
        <mxCell id="3z-M5zX6YGDK5wWiQmvo-11" style="edgeStyle=orthogonalEdgeStyle;rounded=0;orthogonalLoop=1;jettySize=auto;html=1;exitX=1;exitY=0.5;exitDx=0;exitDy=0;entryX=0;entryY=0.5;entryDx=0;entryDy=0;" edge="1" parent="1" source="3z-M5zX6YGDK5wWiQmvo-1" target="3z-M5zX6YGDK5wWiQmvo-2">
          <mxGeometry relative="1" as="geometry" />
        </mxCell>
        <mxCell id="3z-M5zX6YGDK5wWiQmvo-1" value="Start" style="ellipse;whiteSpace=wrap;html=1;" vertex="1" parent="1">
          <mxGeometry x="95" y="73" width="72.5" height="40" as="geometry" />
        </mxCell>
        <mxCell id="3z-M5zX6YGDK5wWiQmvo-12" style="edgeStyle=orthogonalEdgeStyle;rounded=0;orthogonalLoop=1;jettySize=auto;html=1;exitX=1;exitY=0.5;exitDx=0;exitDy=0;entryX=0;entryY=0.5;entryDx=0;entryDy=0;" edge="1" parent="1" source="3z-M5zX6YGDK5wWiQmvo-2" target="3z-M5zX6YGDK5wWiQmvo-4">
          <mxGeometry relative="1" as="geometry" />
        </mxCell>
        <mxCell id="3z-M5zX6YGDK5wWiQmvo-2" value="board is not empty?" style="rhombus;whiteSpace=wrap;html=1;" vertex="1" parent="1">
          <mxGeometry x="205" y="48" width="94" height="90" as="geometry" />
        </mxCell>
        <mxCell id="3z-M5zX6YGDK5wWiQmvo-13" style="edgeStyle=orthogonalEdgeStyle;rounded=0;orthogonalLoop=1;jettySize=auto;html=1;exitX=1;exitY=0.5;exitDx=0;exitDy=0;entryX=0;entryY=0.5;entryDx=0;entryDy=0;" edge="1" parent="1" source="3z-M5zX6YGDK5wWiQmvo-4" target="3z-M5zX6YGDK5wWiQmvo-8">
          <mxGeometry relative="1" as="geometry" />
        </mxCell>
        <mxCell id="3z-M5zX6YGDK5wWiQmvo-4" value="columnSize = board[0].size&lt;br&gt;rowSize = board.size" style="rounded=0;whiteSpace=wrap;html=1;align=left;spacingLeft=3;" vertex="1" parent="1">
          <mxGeometry x="335" y="68" width="150" height="50" as="geometry" />
        </mxCell>
        <mxCell id="3z-M5zX6YGDK5wWiQmvo-15" style="edgeStyle=orthogonalEdgeStyle;rounded=0;orthogonalLoop=1;jettySize=auto;html=1;exitX=1;exitY=0.5;exitDx=0;exitDy=0;entryX=0;entryY=0.5;entryDx=0;entryDy=0;" edge="1" parent="1" source="3z-M5zX6YGDK5wWiQmvo-8" target="3z-M5zX6YGDK5wWiQmvo-14">
          <mxGeometry relative="1" as="geometry" />
        </mxCell>
        <mxCell id="3z-M5zX6YGDK5wWiQmvo-48" style="edgeStyle=orthogonalEdgeStyle;rounded=0;orthogonalLoop=1;jettySize=auto;html=1;exitX=0.5;exitY=1;exitDx=0;exitDy=0;" edge="1" parent="1" source="3z-M5zX6YGDK5wWiQmvo-8">
          <mxGeometry relative="1" as="geometry">
            <mxPoint x="595" y="160" as="targetPoint" />
          </mxGeometry>
        </mxCell>
        <mxCell id="3z-M5zX6YGDK5wWiQmvo-8" value="column size&lt;br&gt;&amp;nbsp;== row size" style="rhombus;whiteSpace=wrap;html=1;" vertex="1" parent="1">
          <mxGeometry x="545" y="48" width="100" height="90" as="geometry" />
        </mxCell>
        <mxCell id="3z-M5zX6YGDK5wWiQmvo-33" style="edgeStyle=orthogonalEdgeStyle;rounded=0;orthogonalLoop=1;jettySize=auto;html=1;exitX=1;exitY=0.5;exitDx=0;exitDy=0;entryX=1;entryY=0.75;entryDx=0;entryDy=0;" edge="1" parent="1" source="3z-M5zX6YGDK5wWiQmvo-14" target="3z-M5zX6YGDK5wWiQmvo-16">
          <mxGeometry relative="1" as="geometry" />
        </mxCell>
        <mxCell id="3z-M5zX6YGDK5wWiQmvo-49" style="edgeStyle=orthogonalEdgeStyle;rounded=0;orthogonalLoop=1;jettySize=auto;html=1;exitX=0.5;exitY=1;exitDx=0;exitDy=0;" edge="1" parent="1" source="3z-M5zX6YGDK5wWiQmvo-14">
          <mxGeometry relative="1" as="geometry">
            <mxPoint x="750" y="160" as="targetPoint" />
          </mxGeometry>
        </mxCell>
        <mxCell id="3z-M5zX6YGDK5wWiQmvo-14" value="columnSize &amp;gt; 4" style="rhombus;whiteSpace=wrap;html=1;" vertex="1" parent="1">
          <mxGeometry x="693" y="48" width="113" height="90" as="geometry" />
        </mxCell>
        <mxCell id="3z-M5zX6YGDK5wWiQmvo-21" style="edgeStyle=orthogonalEdgeStyle;rounded=0;orthogonalLoop=1;jettySize=auto;html=1;exitX=0;exitY=0.5;exitDx=0;exitDy=0;entryX=1;entryY=0.5;entryDx=0;entryDy=0;" edge="1" parent="1" source="3z-M5zX6YGDK5wWiQmvo-16" target="3z-M5zX6YGDK5wWiQmvo-20">
          <mxGeometry relative="1" as="geometry" />
        </mxCell>
        <mxCell id="3z-M5zX6YGDK5wWiQmvo-16" value="divisionFactor = sqrt(columnSize)" style="rounded=0;whiteSpace=wrap;html=1;align=center;" vertex="1" parent="1">
          <mxGeometry x="694" y="206" width="114" height="50" as="geometry" />
        </mxCell>
        <mxCell id="3z-M5zX6YGDK5wWiQmvo-28" value="" style="edgeStyle=orthogonalEdgeStyle;rounded=0;orthogonalLoop=1;jettySize=auto;html=1;" edge="1" parent="1" source="3z-M5zX6YGDK5wWiQmvo-20" target="3z-M5zX6YGDK5wWiQmvo-22">
          <mxGeometry relative="1" as="geometry" />
        </mxCell>
        <mxCell id="3z-M5zX6YGDK5wWiQmvo-50" style="edgeStyle=orthogonalEdgeStyle;rounded=0;orthogonalLoop=1;jettySize=auto;html=1;exitX=0.5;exitY=0;exitDx=0;exitDy=0;" edge="1" parent="1" source="3z-M5zX6YGDK5wWiQmvo-20">
          <mxGeometry relative="1" as="geometry">
            <mxPoint x="614" y="160" as="targetPoint" />
          </mxGeometry>
        </mxCell>
        <mxCell id="3z-M5zX6YGDK5wWiQmvo-20" value="is division&lt;br&gt;&amp;nbsp;factor Integer number?" style="rhombus;whiteSpace=wrap;html=1;" vertex="1" parent="1">
          <mxGeometry x="561" y="183" width="106" height="96" as="geometry" />
        </mxCell>
        <mxCell id="3z-M5zX6YGDK5wWiQmvo-34" style="edgeStyle=orthogonalEdgeStyle;rounded=0;orthogonalLoop=1;jettySize=auto;html=1;exitX=0;exitY=0.5;exitDx=0;exitDy=0;entryX=1;entryY=0.5;entryDx=0;entryDy=0;" edge="1" parent="1" source="3z-M5zX6YGDK5wWiQmvo-22" target="3z-M5zX6YGDK5wWiQmvo-30">
          <mxGeometry relative="1" as="geometry" />
        </mxCell>
        <mxCell id="3z-M5zX6YGDK5wWiQmvo-51" style="edgeStyle=orthogonalEdgeStyle;rounded=0;orthogonalLoop=1;jettySize=auto;html=1;exitX=0.5;exitY=0;exitDx=0;exitDy=0;" edge="1" parent="1" source="3z-M5zX6YGDK5wWiQmvo-22">
          <mxGeometry relative="1" as="geometry">
            <mxPoint x="472" y="160" as="targetPoint" />
          </mxGeometry>
        </mxCell>
        <mxCell id="3z-M5zX6YGDK5wWiQmvo-22" value="Are board&lt;br&gt;&amp;nbsp;columns have no duplicates?" style="rhombus;whiteSpace=wrap;html=1;" vertex="1" parent="1">
          <mxGeometry x="414" y="183" width="115" height="96" as="geometry" />
        </mxCell>
        <mxCell id="3z-M5zX6YGDK5wWiQmvo-23" value="End" style="ellipse;whiteSpace=wrap;html=1;" vertex="1" parent="1">
          <mxGeometry x="15" y="500" width="70" height="40" as="geometry" />
        </mxCell>
        <mxCell id="3z-M5zX6YGDK5wWiQmvo-44" style="edgeStyle=orthogonalEdgeStyle;rounded=0;orthogonalLoop=1;jettySize=auto;html=1;exitX=0.5;exitY=1;exitDx=0;exitDy=0;entryX=0.5;entryY=0;entryDx=0;entryDy=0;" edge="1" parent="1" source="3z-M5zX6YGDK5wWiQmvo-24" target="3z-M5zX6YGDK5wWiQmvo-23">
          <mxGeometry relative="1" as="geometry" />
        </mxCell>
        <mxCell id="3z-M5zX6YGDK5wWiQmvo-24" value="return false" style="rounded=0;whiteSpace=wrap;html=1;" vertex="1" parent="1">
          <mxGeometry x="13" y="432" width="76" height="30" as="geometry" />
        </mxCell>
        <mxCell id="3z-M5zX6YGDK5wWiQmvo-27" style="edgeStyle=orthogonalEdgeStyle;rounded=0;orthogonalLoop=1;jettySize=auto;html=1;exitX=0;exitY=0.5;exitDx=0;exitDy=0;entryX=1;entryY=0.5;entryDx=0;entryDy=0;" edge="1" parent="1" source="3z-M5zX6YGDK5wWiQmvo-26" target="3z-M5zX6YGDK5wWiQmvo-23">
          <mxGeometry relative="1" as="geometry" />
        </mxCell>
        <mxCell id="3z-M5zX6YGDK5wWiQmvo-26" value="return true" style="rounded=0;whiteSpace=wrap;html=1;" vertex="1" parent="1">
          <mxGeometry x="155" y="501.5" width="90" height="37" as="geometry" />
        </mxCell>
        <mxCell id="3z-M5zX6YGDK5wWiQmvo-35" style="edgeStyle=orthogonalEdgeStyle;rounded=0;orthogonalLoop=1;jettySize=auto;html=1;exitX=0;exitY=0.5;exitDx=0;exitDy=0;entryX=1;entryY=0.5;entryDx=0;entryDy=0;" edge="1" parent="1" source="3z-M5zX6YGDK5wWiQmvo-30" target="3z-M5zX6YGDK5wWiQmvo-31">
          <mxGeometry relative="1" as="geometry" />
        </mxCell>
        <mxCell id="3z-M5zX6YGDK5wWiQmvo-52" style="edgeStyle=orthogonalEdgeStyle;rounded=0;orthogonalLoop=1;jettySize=auto;html=1;exitX=0.5;exitY=0;exitDx=0;exitDy=0;" edge="1" parent="1" source="3z-M5zX6YGDK5wWiQmvo-30">
          <mxGeometry relative="1" as="geometry">
            <mxPoint x="323" y="160" as="targetPoint" />
          </mxGeometry>
        </mxCell>
        <mxCell id="3z-M5zX6YGDK5wWiQmvo-30" value="Are board&lt;br&gt;&amp;nbsp;Rows have no duplicates?" style="rhombus;whiteSpace=wrap;html=1;" vertex="1" parent="1">
          <mxGeometry x="265.5" y="183" width="115" height="96" as="geometry" />
        </mxCell>
        <mxCell id="3z-M5zX6YGDK5wWiQmvo-37" style="edgeStyle=orthogonalEdgeStyle;rounded=0;orthogonalLoop=1;jettySize=auto;html=1;exitX=0;exitY=0.5;exitDx=0;exitDy=0;entryX=0;entryY=0.5;entryDx=0;entryDy=0;" edge="1" parent="1" source="3z-M5zX6YGDK5wWiQmvo-31" target="3z-M5zX6YGDK5wWiQmvo-36">
          <mxGeometry relative="1" as="geometry" />
        </mxCell>
        <mxCell id="3z-M5zX6YGDK5wWiQmvo-54" style="edgeStyle=orthogonalEdgeStyle;rounded=0;orthogonalLoop=1;jettySize=auto;html=1;exitX=0.5;exitY=0;exitDx=0;exitDy=0;" edge="1" parent="1" source="3z-M5zX6YGDK5wWiQmvo-31">
          <mxGeometry relative="1" as="geometry">
            <mxPoint x="179" y="160" as="targetPoint" />
          </mxGeometry>
        </mxCell>
        <mxCell id="3z-M5zX6YGDK5wWiQmvo-31" value="Are board&lt;br&gt;&amp;nbsp;Grids have no duplicates?" style="rhombus;whiteSpace=wrap;html=1;" vertex="1" parent="1">
          <mxGeometry x="121" y="183" width="115" height="96" as="geometry" />
        </mxCell>
        <mxCell id="3z-M5zX6YGDK5wWiQmvo-58" style="edgeStyle=orthogonalEdgeStyle;rounded=0;orthogonalLoop=1;jettySize=auto;html=1;exitX=0.5;exitY=1;exitDx=0;exitDy=0;entryX=0.5;entryY=0;entryDx=0;entryDy=0;" edge="1" parent="1" source="3z-M5zX6YGDK5wWiQmvo-36" target="3z-M5zX6YGDK5wWiQmvo-24">
          <mxGeometry relative="1" as="geometry" />
        </mxCell>
        <mxCell id="3z-M5zX6YGDK5wWiQmvo-66" style="edgeStyle=orthogonalEdgeStyle;rounded=0;orthogonalLoop=1;jettySize=auto;html=1;exitX=1;exitY=0.5;exitDx=0;exitDy=0;entryX=1;entryY=0.5;entryDx=0;entryDy=0;" edge="1" parent="1" source="3z-M5zX6YGDK5wWiQmvo-36" target="3z-M5zX6YGDK5wWiQmvo-26">
          <mxGeometry relative="1" as="geometry" />
        </mxCell>
        <mxCell id="3z-M5zX6YGDK5wWiQmvo-36" value="Are board&lt;br&gt;&amp;nbsp;Grids have &lt;br&gt;valid inputs?" style="rhombus;whiteSpace=wrap;html=1;" vertex="1" parent="1">
          <mxGeometry x="119" y="296" width="115" height="96" as="geometry" />
        </mxCell>
        <mxCell id="3z-M5zX6YGDK5wWiQmvo-47" value="" style="endArrow=none;html=1;rounded=0;" edge="1" parent="1">
          <mxGeometry width="50" height="50" relative="1" as="geometry">
            <mxPoint x="40" y="160" as="sourcePoint" />
            <mxPoint x="750" y="160" as="targetPoint" />
          </mxGeometry>
        </mxCell>
        <mxCell id="3z-M5zX6YGDK5wWiQmvo-56" value="" style="endArrow=classic;html=1;rounded=0;" edge="1" parent="1">
          <mxGeometry width="50" height="50" relative="1" as="geometry">
            <mxPoint x="251.5" y="137" as="sourcePoint" />
            <mxPoint x="251" y="160" as="targetPoint" />
          </mxGeometry>
        </mxCell>
        <mxCell id="3z-M5zX6YGDK5wWiQmvo-57" value="" style="endArrow=classic;html=1;rounded=0;entryX=0.5;entryY=0;entryDx=0;entryDy=0;" edge="1" parent="1" target="3z-M5zX6YGDK5wWiQmvo-24">
          <mxGeometry width="50" height="50" relative="1" as="geometry">
            <mxPoint x="40" y="160" as="sourcePoint" />
            <mxPoint x="40" y="330" as="targetPoint" />
          </mxGeometry>
        </mxCell>
        <mxCell id="3z-M5zX6YGDK5wWiQmvo-59" value="Yes" style="text;html=1;strokeColor=none;fillColor=none;align=center;verticalAlign=middle;whiteSpace=wrap;rounded=0;" vertex="1" parent="1">
          <mxGeometry x="294" y="69" width="37" height="16" as="geometry" />
        </mxCell>
        <mxCell id="3z-M5zX6YGDK5wWiQmvo-60" value="Yes" style="text;html=1;strokeColor=none;fillColor=none;align=center;verticalAlign=middle;whiteSpace=wrap;rounded=0;" vertex="1" parent="1">
          <mxGeometry x="641" y="69" width="47" height="16" as="geometry" />
        </mxCell>
        <mxCell id="3z-M5zX6YGDK5wWiQmvo-61" value="Yes" style="text;html=1;strokeColor=none;fillColor=none;align=center;verticalAlign=middle;whiteSpace=wrap;rounded=0;" vertex="1" parent="1">
          <mxGeometry x="802" y="65" width="35" height="18" as="geometry" />
        </mxCell>
        <mxCell id="3z-M5zX6YGDK5wWiQmvo-62" value="Yes" style="text;html=1;strokeColor=none;fillColor=none;align=center;verticalAlign=middle;whiteSpace=wrap;rounded=0;" vertex="1" parent="1">
          <mxGeometry x="520" y="206" width="47" height="16" as="geometry" />
        </mxCell>
        <mxCell id="3z-M5zX6YGDK5wWiQmvo-63" value="Yes" style="text;html=1;strokeColor=none;fillColor=none;align=center;verticalAlign=middle;whiteSpace=wrap;rounded=0;" vertex="1" parent="1">
          <mxGeometry x="375" y="203" width="47" height="16" as="geometry" />
        </mxCell>
        <mxCell id="3z-M5zX6YGDK5wWiQmvo-64" value="Yes" style="text;html=1;strokeColor=none;fillColor=none;align=center;verticalAlign=middle;whiteSpace=wrap;rounded=0;" vertex="1" parent="1">
          <mxGeometry x="228.5" y="206" width="47" height="16" as="geometry" />
        </mxCell>
        <mxCell id="3z-M5zX6YGDK5wWiQmvo-65" value="Yes" style="text;html=1;strokeColor=none;fillColor=none;align=center;verticalAlign=middle;whiteSpace=wrap;rounded=0;" vertex="1" parent="1">
          <mxGeometry x="85" y="206" width="47" height="16" as="geometry" />
        </mxCell>
        <mxCell id="3z-M5zX6YGDK5wWiQmvo-67" value="Yes" style="text;html=1;strokeColor=none;fillColor=none;align=center;verticalAlign=middle;whiteSpace=wrap;rounded=0;" vertex="1" parent="1">
          <mxGeometry x="228.5" y="321" width="31.5" height="16" as="geometry" />
        </mxCell>
        <mxCell id="3z-M5zX6YGDK5wWiQmvo-68" value="No" style="text;html=1;strokeColor=none;fillColor=none;align=center;verticalAlign=middle;whiteSpace=wrap;rounded=0;" vertex="1" parent="1">
          <mxGeometry x="182" y="395" width="23" height="16" as="geometry" />
        </mxCell>
        <mxCell id="3z-M5zX6YGDK5wWiQmvo-69" value="No" style="text;html=1;strokeColor=none;fillColor=none;align=center;verticalAlign=middle;whiteSpace=wrap;rounded=0;" vertex="1" parent="1">
          <mxGeometry x="716" y="140" width="23" height="16" as="geometry" />
        </mxCell>
        <mxCell id="3z-M5zX6YGDK5wWiQmvo-70" value="No" style="text;html=1;strokeColor=none;fillColor=none;align=center;verticalAlign=middle;whiteSpace=wrap;rounded=0;" vertex="1" parent="1">
          <mxGeometry x="623" y="167" width="23" height="16" as="geometry" />
        </mxCell>
        <mxCell id="3z-M5zX6YGDK5wWiQmvo-71" value="No" style="text;html=1;strokeColor=none;fillColor=none;align=center;verticalAlign=middle;whiteSpace=wrap;rounded=0;" vertex="1" parent="1">
          <mxGeometry x="562" y="136" width="23" height="16" as="geometry" />
        </mxCell>
        <mxCell id="3z-M5zX6YGDK5wWiQmvo-72" value="No" style="text;html=1;strokeColor=none;fillColor=none;align=center;verticalAlign=middle;whiteSpace=wrap;rounded=0;" vertex="1" parent="1">
          <mxGeometry x="480" y="167" width="23" height="16" as="geometry" />
        </mxCell>
        <mxCell id="3z-M5zX6YGDK5wWiQmvo-73" value="No" style="text;html=1;strokeColor=none;fillColor=none;align=center;verticalAlign=middle;whiteSpace=wrap;rounded=0;" vertex="1" parent="1">
          <mxGeometry x="332" y="169" width="23" height="16" as="geometry" />
        </mxCell>
        <mxCell id="3z-M5zX6YGDK5wWiQmvo-74" value="No" style="text;html=1;strokeColor=none;fillColor=none;align=center;verticalAlign=middle;whiteSpace=wrap;rounded=0;" vertex="1" parent="1">
          <mxGeometry x="262" y="135" width="23" height="16" as="geometry" />
        </mxCell>
        <mxCell id="3z-M5zX6YGDK5wWiQmvo-75" value="No" style="text;html=1;strokeColor=none;fillColor=none;align=center;verticalAlign=middle;whiteSpace=wrap;rounded=0;" vertex="1" parent="1">
          <mxGeometry x="186" y="170" width="23" height="16" as="geometry" />
        </mxCell>
        <mxCell id="3z-M5zX6YGDK5wWiQmvo-76" value="&lt;font style=&quot;font-size: 22px;&quot;&gt;Sudoku Flow Chart&lt;/font&gt;" style="text;html=1;strokeColor=none;fillColor=none;align=center;verticalAlign=middle;whiteSpace=wrap;rounded=0;fontStyle=1" vertex="1" parent="1">
          <mxGeometry x="440" y="365" width="210" height="95" as="geometry" />
        </mxCell>
      </root>
    </mxGraphModel>
  </diagram>
</mxfile>
